<svg height="511pt" viewBox="-80 0 511 511.99961" width="511pt" xmlns="http://www.w3.org/2000/svg"><path d="m285.40625 132.957031c-3.484375-5.761719-10.378906-8.5-16.863281-6.691406-6.488281 1.808594-10.976563 7.71875-10.976563 14.449219 0 18.308594-14.894531 33.199218-33.199218 33.199218-18.304688 0-33.199219-14.890624-33.199219-33.199218v-125.714844c0-6.066406-3.652344-11.535156-9.261719-13.859375-5.601562-2.320313-12.054688-1.039063-16.34375 3.253906-1.6875 1.683594-41.6875 41.914063-82.210938 102.703125-23.894531 35.84375-42.960937 71.398438-56.675781 105.675782-17.367187 43.425781-26.175781 84.996093-26.175781 123.558593 0 96.863281 78.804688 175.667969 175.667969 175.667969s175.667969-78.804688 175.667969-175.667969c0-62-22.351563-130.425781-66.429688-203.375zm-109.238281 349.042969c-80.320313 0-145.667969-65.347656-145.667969-145.667969 0-79.0625 42.140625-158.984375 77.488281-212.105469 19.160157-28.792968 38.472657-53.0625 53.179688-70.316406v86.804688c0 34.851562 28.351562 63.199218 63.199219 63.199218 21.304687 0 40.179687-10.59375 51.636718-26.792968 30.433594 57.308594 45.832032 110.746094 45.832032 159.210937 0 80.320313-65.347657 145.667969-145.667969 145.667969zm0 0"/><path d="m186.484375 245.113281c-5.785156-5.484375-14.847656-5.484375-20.636719 0-.8125.769531-20.199218 19.203125-39.855468 43.261719-28.222657 34.542969-41.945313 61.792969-41.945313 83.304688 0 50.792968 41.324219 92.121093 92.121094 92.121093 50.792969 0 92.121093-41.328125 92.121093-92.121093 0-21.511719-13.722656-48.761719-41.945312-83.304688-19.65625-24.054688-39.042969-42.488281-39.859375-43.261719zm-10.316406 188.6875c-34.253907 0-62.121094-27.867187-62.121094-62.121093 0-23.230469 34.71875-66.515626 62.121094-94.597657 27.402343 28.085938 62.121093 71.371094 62.121093 94.597657 0 34.253906-27.867187 62.121093-62.121093 62.121093zm0 0"/></svg>