<svg height="511pt" viewBox="1 -41 511.99975 511" width="511pt" xmlns="http://www.w3.org/2000/svg"><path d="m226.949219 47.851562c11.496093 0 22.144531-6.695312 27.125-17.054687l14.421875-30.296875h-108.824219v47.351562zm0 0"/><path d="m507.605469 344.675781-164.378907-164.382812c-10.609374-10.609375-24.714843-16.453125-39.71875-16.453125-9.863281 0-19.332031 2.542968-27.679687 7.285156l-23.828125-23.832031c-.507812-.503907-1.050781-.953125-1.605469-1.371094 42.914063-19.882813 72.6875-63.328125 72.6875-113.738281 0-14.148438-9.273437-26.125-22.070312-30.195313l-19.875 41.753907c-9.976563 20.742187-31.234375 34.109374-54.1875 34.109374h-82.277344c-8.285156 0-15-6.71875-15-15v-62.351562h-129.671875v156.976562h174.71875c-1.292969 1.203126-2.386719 2.636719-3.203125 4.273438l-24.800781 49.601562c-6.671875 13.339844-5.972656 28.882813 1.871094 41.570313 7.839843 12.6875 21.429687 20.265625 36.34375 20.265625 14.917968 0 28.503906-7.574219 36.347656-20.265625 7.84375-12.6875 8.542968-28.230469 1.871094-41.570313l-24.800782-49.601562c-.816406-1.636719-1.910156-3.070312-3.203125-4.273438h2.648438c10.023437 0 19.769531-1.183593 29.113281-3.410156-1.316406 4.992188-.03125 10.527344 3.882812 14.441406l23.828126 23.828126c-4.742188 8.347656-7.28125 17.816406-7.28125 27.679687 0 15.003906 5.84375 29.109375 16.453124 39.71875l164.378907 164.378906c2.929687 2.929688 6.769531 4.394531 10.605469 4.394531 3.839843 0 7.679687-1.464843 10.605468-4.394531l58.230469-58.226562c5.855469-5.859375 5.855469-15.355469-.003906-21.210938zm-61.628907 17.808594c-2.929687 2.925781-6.769531 4.390625-10.605468 4.390625-3.839844 0-7.679688-1.460938-10.609375-4.390625l-31.230469-31.234375c-5.855469-5.855469-5.855469-15.351562 0-21.210938 5.859375-5.855468 15.355469-5.859374 21.214844 0l31.230468 31.230469c5.855469 5.859375 5.855469 15.355469 0 21.214844zm0 0"/></svg>