<?xml version="1.0" encoding="iso-8859-1"?>
<!-- Generator: Adobe Illustrator 18.1.1, SVG Export Plug-In . SVG Version: 6.00 Build 0)  -->
<svg version="1.1" id="Capa_1" xmlns="http://www.w3.org/2000/svg" xmlns:xlink="http://www.w3.org/1999/xlink" x="0px" y="0px"
	 viewBox="0 0 25.851 25.851" style="enable-background:new 0 0 25.851 25.851;" xml:space="preserve">
<g>
	<path style="fill:#030104;" d="M23.94,1.91C22.666,0.637,20.998,0,19.328,0c-1.668,0-3.337,0.637-4.611,1.91
		c-0.745,0.747-6.813,6.814-7.389,7.391c-1.867,1.867-1.239,6.658-2.949,8.368s-3.474,3.474-3.592,3.593
		c-1.044,1.043-1.048,2.732-0.014,3.783l-0.018,0.018c0.529,0.529,1.223,0.79,1.915,0.786c0.006,0,0.012,0.002,0.019,0.002
		c0.688,0,1.376-0.263,1.901-0.787c0.118-0.118,1.915-1.915,3.591-3.592c1.676-1.677,6.502-1.081,8.37-2.949
		c0.574-0.576,6.643-6.645,7.39-7.39C26.487,8.585,26.486,4.457,23.94,1.91z M22.81,10c-0.747,0.746-6.818,6.816-7.391,7.391
		c-0.604,0.604-2.164,0.882-3.54,1.127c-1.31,0.233-2.649,0.476-3.735,1.041l-0.952-0.953l-5.289,5.306
		c-0.195-0.204-0.305-0.467-0.305-0.75c0-0.291,0.113-0.563,0.326-0.776c0.118-0.118,1.878-1.879,3.584-3.585
		c1.193-1.193,1.522-3.063,1.841-4.871c0.24-1.359,0.511-2.9,1.109-3.498l0.464-0.464l1.11,1.109
		c0.156,0.156,0.361,0.234,0.565,0.234s0.41-0.078,0.566-0.234c0.312-0.312,0.312-0.819,0-1.131l-1.109-1.109l0.728-0.728
		c0.045-0.045,0.094-0.094,0.141-0.141l1.11,1.109c0.156,0.156,0.361,0.234,0.565,0.234s0.41-0.078,0.566-0.234
		c0.312-0.312,0.312-0.819,0-1.131l-1.109-1.109c0.292-0.292,0.582-0.582,0.869-0.869l1.11,1.109
		c0.156,0.156,0.36,0.234,0.565,0.234s0.409-0.078,0.565-0.234c0.312-0.312,0.312-0.819,0-1.131l-1.109-1.109
		c0.321-0.321,0.612-0.612,0.869-0.869l1.11,1.11c0.156,0.156,0.36,0.234,0.565,0.234s0.409-0.078,0.565-0.234
		c0.312-0.312,0.312-0.819,0-1.132l-1.089-1.089c0.904-0.802,2.04-1.256,3.256-1.256c1.314,0,2.551,0.512,3.48,1.44
		C24.726,4.96,24.726,8.083,22.81,10z M19.105,5.614l1.131,1.132L8.953,18.029l-1.132-1.131L19.105,5.614z"/>
</g>
<g>
</g>
<g>
</g>
<g>
</g>
<g>
</g>
<g>
</g>
<g>
</g>
<g>
</g>
<g>
</g>
<g>
</g>
<g>
</g>
<g>
</g>
<g>
</g>
<g>
</g>
<g>
</g>
<g>
</g>
</svg>
