<?xml version="1.0" encoding="iso-8859-1"?>
<!-- Generator: Adobe Illustrator 19.0.0, SVG Export Plug-In . SVG Version: 6.00 Build 0)  -->
<svg version="1.1" id="Layer_1" xmlns="http://www.w3.org/2000/svg" xmlns:xlink="http://www.w3.org/1999/xlink" x="0px" y="0px"
	 viewBox="0 0 512.001 512.001" style="enable-background:new 0 0 512.001 512.001;" xml:space="preserve">
<g>
	<g>
		<path d="M457.758,251.578c-2.938,0-5.624,1.187-7.546,3.125l-15.079,15.094c-1.938,1.937-3.125,4.593-3.125,7.53
			c0,5.906,4.782,10.672,10.656,10.672c2.954,0,5.626-1.203,7.548-3.125l15.077-15.077c1.938-1.938,3.125-4.594,3.125-7.547
			C468.414,256.359,463.649,251.578,457.758,251.578z"/>
	</g>
</g>
<g>
	<g>
		<path d="M165.142,348.499c-3.282-9.671-9.985-17.655-18.868-22.484l-0.438-0.218c-5.101-2.47-10.398-3.72-15.75-3.72
			c-6.484,0-12.664,1.86-18.078,5.345c-5.422-3.484-11.602-5.345-18.078-5.345c-5.359,0-10.657,1.25-15.758,3.72l-0.429,0.218
			c-8.891,4.829-15.594,12.813-18.875,22.484c-3.336,9.828-3,20.578,0.96,31.095c10.157,27.984,44.984,39.859,48.922,41.107
			l3.25,1.049l3.258-1.049c3.938-1.248,38.766-13.123,48.922-41.107C168.142,369.077,168.477,358.327,165.142,348.499z
			 M144.204,372.108l-0.062,0.157c-5.39,14.938-24.445,23.859-32.133,26.921c-7.695-3.062-26.75-11.983-32.141-26.921l-0.054-0.157
			c-4.281-11.281-1.109-22.187,7.882-27.218c2.102-0.97,4.195-1.469,6.235-1.469c3.719,0,7.171,1.719,9.968,4.999l8.102,9.47
			l8.11-9.469c2.796-3.28,6.25-4.999,9.976-4.999c2.031,0,4.125,0.499,6.227,1.469C145.305,349.922,148.477,360.827,144.204,372.108
			z"/>
	</g>
</g>
<g>
	<g>
		<path d="M453.337,214.218v-43.554C453.337,76.406,376.931,0,282.664,0c-94.25,0-170.663,76.406-170.663,170.664v42.672H26.673
			c-11.781,0-21.336,9.547-21.336,21.328v256.008c0,11.781,9.555,21.328,21.336,21.328h213.328c11.789,0,21.336-9.547,21.336-21.328
			V234.664c0-11.781-9.547-21.328-21.336-21.328v-42.672c0-23.524,19.133-42.664,42.663-42.664
			c23.532,0,42.673,19.141,42.673,42.665v194.617c-26.984,13.953-34.142,79.842-34.142,101.922
			c0,24.748,20.062,44.797,44.812,44.797s44.798-20.049,44.798-44.797c0-22.08-7.141-87.969-34.142-101.922V170.664
			c0-35.344-28.656-64-64-64c-35.343,0-63.991,28.656-63.991,64v42.672h-85.336v-42.672c0-20.165,3.945-39.719,11.726-58.118
			c7.523-17.781,18.29-33.758,32.016-47.476c13.718-13.719,29.687-24.492,47.468-32.008c18.399-7.781,37.961-11.726,58.117-11.726
			c20.188,0,39.735,3.945,58.125,11.726c17.782,7.516,33.751,18.289,47.469,32.008c13.719,13.718,24.501,29.695,32.017,47.476
			c7.78,18.398,11.733,37.953,11.733,58.118v43.554c-30.28,5.086-53.344,31.391-53.344,63.109c0,35.345,28.657,64,64,64
			c35.344,0,64.001-28.655,64.001-64C506.665,245.609,483.602,219.305,453.337,214.218z M336.008,384
			c2.282,0,9.312,6.951,15.345,27.641c5.969,20.391,8.125,44.405,8.125,55.562c0,12.938-10.532,23.469-23.47,23.469
			c-12.937,0-23.469-10.531-23.469-23.469c0-11.157,2.157-35.172,8.11-55.562C326.68,390.951,333.728,384,336.008,384z
			 M218.673,234.664h21.328v256.008h-21.328V234.664z M197.337,234.664v256.008H26.673V234.664H197.337z M442.664,320
			c-23.53,0-42.656-19.142-42.656-42.673s19.126-42.663,42.656-42.663c23.532,0,42.673,19.132,42.673,42.663
			C485.337,300.858,466.196,320,442.664,320z"/>
	</g>
</g>
<g>
</g>
<g>
</g>
<g>
</g>
<g>
</g>
<g>
</g>
<g>
</g>
<g>
</g>
<g>
</g>
<g>
</g>
<g>
</g>
<g>
</g>
<g>
</g>
<g>
</g>
<g>
</g>
<g>
</g>
</svg>
